# xmcd CD database file
#
# Track frame offsets:
#	151
#	15490
#	26345
#	43122
#	56745
#	67372
#	79721
#	95222
#	105401
#	118874
#	131979
#	142672
#	153375
#	164604
#
# Disc length: 2414 seconds
#
# Revision: 0
# Processed by: cddbd v1.5.1PL2 Copyright (c) Steve Scherf et al.
# Submitted via: CDex 1.51
#
DISCID=c2096c0e
DTITLE=Dusty Spittle - What Would I Be Without You
DYEAR=2000
DGENRE=Country
TTITLE0=Stockman's Prayer
TTITLE1=Whatwould I Be Without You
TTITLE2=Old Dogs And Children And Watermelon Wine
TTITLE3=The Cat Came Back
TTITLE4=To The Memory Of A Train
TTITLE5=Over The Hill To Ophir
TTITLE6=The Southerner
TTITLE7=On The Road Again
TTITLE8=Red Conroys Rose
TTITLE9=Song Of New Zealand
TTITLE10=I Didn't Want To Say Good-Bye
TTITLE11=Typical Mustering Man
TTITLE12=Kupes People
TTITLE13=Old Blue
EXTD=YEAR: 2000
EXTT0=
EXTT1=
EXTT2=
EXTT3=
EXTT4=
EXTT5=
EXTT6=
EXTT7=
EXTT8=
EXTT9=
EXTT10=
EXTT11=
EXTT12=
EXTT13=
PLAYORDER=
